<svg width="20" height="20" viewBox="0 0 20 20" fill="none" xmlns="http://www.w3.org/2000/svg">
<path fill-rule="evenodd" clip-rule="evenodd" d="M9.72347 0.248047H10.3767C12.0822 0.248037 13.4267 0.248029 14.4951 0.363784C15.5882 0.482211 16.4857 0.729367 17.2549 1.28825C17.7173 1.62419 18.124 2.03081 18.4599 2.4932C19.0188 3.26243 19.2659 4.15994 19.3844 5.25301C19.5001 6.32141 19.5001 7.66594 19.5001 9.37139V10.0247C19.5001 11.7302 19.5001 13.0747 19.3844 14.1431C19.2659 15.2362 19.0188 16.1337 18.4599 16.9029C18.124 17.3653 17.7173 17.7719 17.2549 18.1078C16.4857 18.6667 15.5882 18.9139 14.4951 19.0323C13.4267 19.1481 12.0822 19.1481 10.3768 19.148H9.72344C8.01799 19.1481 6.67346 19.1481 5.60506 19.0323C4.51199 18.9139 3.61448 18.6667 2.84525 18.1078C2.38286 17.7719 1.97624 17.3653 1.6403 16.9029C1.08142 16.1337 0.834262 15.2362 0.715835 14.1431C0.60008 13.0747 0.600088 11.7301 0.600098 10.0247V9.37142C0.600088 7.66595 0.60008 6.32142 0.715835 5.25301C0.834262 4.15994 1.08142 3.26243 1.6403 2.4932C1.97624 2.03081 2.38286 1.62419 2.84525 1.28825C3.61448 0.729367 4.51199 0.482211 5.60506 0.363784C6.67347 0.248029 8.018 0.248037 9.72347 0.248047ZM5.77555 1.93733C4.81714 2.04117 4.23002 2.23855 3.77557 2.56872C3.44755 2.80704 3.15909 3.0955 2.92078 3.42352C2.5906 3.87797 2.39322 4.46509 2.28938 5.4235C2.18394 6.39672 2.18286 7.65554 2.18286 9.41874V9.97736C2.18286 11.7406 2.18394 12.9994 2.28938 13.9726C2.39322 14.931 2.5906 15.5181 2.92078 15.9726C3.15909 16.3006 3.44755 16.5891 3.77557 16.8274C4.23002 17.1575 4.81714 17.3549 5.77555 17.4588C6.74877 17.5642 8.0076 17.5653 9.77079 17.5653H10.3294C12.0926 17.5653 13.3514 17.5642 14.3246 17.4588C15.2831 17.3549 15.8702 17.1575 16.3246 16.8274C16.6526 16.5891 16.9411 16.3006 17.1794 15.9726C17.5096 15.5181 17.707 14.931 17.8108 13.9726C17.9163 12.9994 17.9173 11.7406 17.9173 9.97736V9.41874C17.9173 7.65554 17.9163 6.39672 17.8108 5.4235C17.707 4.46509 17.5096 3.87797 17.1794 3.42352C16.9411 3.0955 16.6526 2.80704 16.3246 2.56872C15.8702 2.23855 15.2831 2.04117 14.3246 1.93733C13.3514 1.83189 12.0926 1.83081 10.3294 1.83081H9.77079C8.00759 1.83081 6.74877 1.83189 5.77555 1.93733Z" fill="white"/>
<path fill-rule="evenodd" clip-rule="evenodd" d="M10.0501 6.48598C8.27612 6.48598 6.83803 7.92407 6.83803 9.69805C6.83803 11.472 8.27612 12.9101 10.0501 12.9101C11.8241 12.9101 13.2622 11.472 13.2622 9.69805C13.2622 7.92407 11.8241 6.48598 10.0501 6.48598ZM5.25527 9.69805C5.25527 7.04994 7.40199 4.90322 10.0501 4.90322C12.6982 4.90322 14.8449 7.04994 14.8449 9.69805C14.8449 12.3462 12.6982 14.4929 10.0501 14.4929C7.40199 14.4929 5.25527 12.3462 5.25527 9.69805Z" fill="white"/>
<path d="M14.0535 4.63555C14.0535 4.03779 14.5381 3.55322 15.1359 3.55322C15.7336 3.55322 16.2182 4.03779 16.2182 4.63555C16.2182 5.2333 15.7336 5.71787 15.1359 5.71787C14.5381 5.71787 14.0535 5.2333 14.0535 4.63555Z" fill="white"/>
</svg>
