<svg width="184" height="19" viewBox="0 0 184 19" fill="none" xmlns="http://www.w3.org/2000/svg">
<path d="M7.228 18.312C6.17067 18.312 5.07 18.1127 3.926 17.714C2.782 17.3153 1.75067 16.7087 0.832 15.894L3.38 12.826C3.98667 13.3113 4.63667 13.71 5.33 14.022C6.04067 14.3167 6.708 14.464 7.332 14.464C8.008 14.464 8.49333 14.36 8.788 14.152C9.1 13.944 9.256 13.6493 9.256 13.268C9.256 12.8693 9.048 12.566 8.632 12.358C8.23333 12.15 7.67867 11.9073 6.968 11.63L4.862 10.746C3.96067 10.382 3.16333 9.81 2.47 9.03C1.794 8.25 1.456 7.25333 1.456 6.04C1.456 5.06933 1.72467 4.194 2.262 3.414C2.79933 2.61667 3.536 1.984 4.472 1.516C5.42533 1.03067 6.51733 0.787998 7.748 0.787998C8.71867 0.787998 9.698 0.978665 10.686 1.36C11.6913 1.724 12.584 2.28733 13.364 3.05L11.128 5.858C10.556 5.45933 10.0013 5.156 9.464 4.948C8.944 4.74 8.372 4.636 7.748 4.636C7.21067 4.636 6.77733 4.73133 6.448 4.922C6.136 5.11267 5.98 5.39867 5.98 5.78C5.98 6.17867 6.20533 6.49067 6.656 6.716C7.10667 6.924 7.71333 7.17533 8.476 7.47L10.53 8.276C11.5873 8.692 12.402 9.27267 12.974 10.018C13.546 10.7633 13.832 11.7253 13.832 12.904C13.832 13.8573 13.572 14.75 13.052 15.582C12.5493 16.3967 11.804 17.0553 10.816 17.558C9.828 18.0607 8.632 18.312 7.228 18.312ZM26.1158 9.784L25.8298 10.954H28.9498L28.6638 9.784C28.4558 8.96933 28.2478 8.08533 28.0398 7.132C27.8318 6.17867 27.6238 5.27733 27.4158 4.428H27.3118C27.1384 5.27733 26.9478 6.17867 26.7398 7.132C26.5318 8.08533 26.3238 8.96933 26.1158 9.784ZM19.6158 18L24.7638 1.1H30.1718L35.3198 18H30.5878L29.7558 14.412H25.0238L24.1918 18H19.6158ZM42.1314 18V1.1H46.9154L49.4634 8.016C49.6194 8.484 49.7667 8.96933 49.9054 9.472C50.044 9.97467 50.1914 10.4773 50.3474 10.98H50.4514C50.6074 10.4773 50.7547 9.97467 50.8934 9.472C51.032 8.96933 51.1794 8.484 51.3354 8.016L53.7794 1.1H58.5634V18H54.5074V13.008C54.5074 12.436 54.542 11.7947 54.6114 11.084C54.6807 10.356 54.7587 9.628 54.8454 8.9C54.932 8.172 55.01 7.53067 55.0794 6.976H54.9754L53.5714 11.032L51.4914 16.622H49.0994L47.0194 11.032L45.6674 6.976H45.5634C45.6327 7.53067 45.7107 8.172 45.7974 8.9C45.884 9.628 45.962 10.356 46.0314 11.084C46.1007 11.7947 46.1354 12.436 46.1354 13.008V18H42.1314ZM67.5169 18V1.1H71.9889V18H67.5169Z" fill="#4D7E2A"/>
<path d="M88.7435 18.312C87.1662 18.312 85.7275 18 84.4275 17.376C83.1448 16.7347 82.1222 15.7727 81.3595 14.49C80.5968 13.2073 80.2155 11.604 80.2155 9.68C80.2155 8.25867 80.4408 7.002 80.8915 5.91C81.3422 4.80067 81.9575 3.86467 82.7375 3.102C83.5175 2.33933 84.4102 1.76733 85.4155 1.386C86.4382 0.987332 87.5128 0.787998 88.6395 0.787998C89.8875 0.787998 90.9708 1.01333 91.8895 1.464C92.8082 1.89733 93.5622 2.41733 94.1515 3.024L91.8115 5.884C91.3955 5.52 90.9535 5.22533 90.4855 5C90.0348 4.75733 89.4715 4.636 88.7955 4.636C87.6515 4.636 86.6982 5.06933 85.9355 5.936C85.1728 6.78533 84.7915 7.98133 84.7915 9.524C84.7915 11.1013 85.1468 12.3233 85.8575 13.19C86.5855 14.0393 87.7035 14.464 89.2115 14.464C89.4542 14.464 89.6882 14.438 89.9135 14.386C90.1562 14.334 90.3555 14.256 90.5115 14.152V11.812H88.0155V8.172H94.4635V16.232C93.8742 16.804 93.0682 17.298 92.0455 17.714C91.0402 18.1127 89.9395 18.312 88.7435 18.312ZM102.952 18V1.1H109.348C110.561 1.1 111.679 1.26467 112.702 1.594C113.725 1.906 114.548 2.46067 115.172 3.258C115.796 4.05533 116.108 5.156 116.108 6.56C116.108 7.77333 115.857 8.77867 115.354 9.576C114.851 10.3733 114.193 10.9973 113.378 11.448L117.044 18H112.052L109.14 12.332H107.424V18H102.952ZM107.424 8.796H109.036C110.839 8.796 111.74 8.05067 111.74 6.56C111.74 5.832 111.506 5.32933 111.038 5.052C110.587 4.77467 109.92 4.636 109.036 4.636H107.424V8.796ZM131.653 18.312C130.093 18.312 128.724 17.9653 127.545 17.272C126.366 16.5613 125.448 15.5473 124.789 14.23C124.13 12.9127 123.801 11.3267 123.801 9.472C123.801 7.61733 124.13 6.04867 124.789 4.766C125.448 3.466 126.366 2.478 127.545 1.802C128.724 1.126 130.093 0.787998 131.653 0.787998C133.213 0.787998 134.582 1.126 135.761 1.802C136.94 2.478 137.858 3.466 138.517 4.766C139.176 6.04867 139.505 7.61733 139.505 9.472C139.505 11.3267 139.176 12.9127 138.517 14.23C137.858 15.5473 136.94 16.5613 135.761 17.272C134.582 17.9653 133.213 18.312 131.653 18.312ZM131.653 14.464C132.676 14.464 133.473 14.0133 134.045 13.112C134.634 12.2107 134.929 10.9973 134.929 9.472C134.929 7.92933 134.634 6.742 134.045 5.91C133.473 5.06067 132.676 4.636 131.653 4.636C130.648 4.636 129.85 5.06067 129.261 5.91C128.672 6.742 128.377 7.92933 128.377 9.472C128.377 10.9973 128.672 12.2107 129.261 13.112C129.85 14.0133 130.648 14.464 131.653 14.464ZM154.647 18.312C152.29 18.312 150.53 17.6187 149.369 16.232C148.208 14.8453 147.627 12.7133 147.627 9.836V1.1H152.099V10.356C152.099 11.864 152.298 12.93 152.697 13.554C153.113 14.1607 153.763 14.464 154.647 14.464C155.531 14.464 156.181 14.1607 156.597 13.554C157.03 12.93 157.247 11.864 157.247 10.356V1.1H161.563V9.836C161.563 12.7133 161 14.8453 159.873 16.232C158.764 17.6187 157.022 18.312 154.647 18.312ZM170.4 18V1.1H176.588C177.818 1.1 178.954 1.27333 179.994 1.62C181.034 1.96667 181.866 2.54733 182.49 3.362C183.131 4.17667 183.452 5.29467 183.452 6.716C183.452 8.08533 183.131 9.212 182.49 10.096C181.866 10.9627 181.034 11.604 179.994 12.02C178.971 12.436 177.87 12.644 176.692 12.644H174.872V18H170.4ZM174.872 9.108H176.484C177.368 9.108 178.018 8.9 178.434 8.484C178.867 8.05067 179.084 7.46133 179.084 6.716C179.084 5.95333 178.85 5.416 178.382 5.104C177.914 4.792 177.246 4.636 176.38 4.636H174.872V9.108Z" fill="white"/>
</svg>
