<svg width="20" height="20" viewBox="0 0 20 20" fill="none" xmlns="http://www.w3.org/2000/svg">
<path d="M6.91074 8.60411C6.07005 8.92683 5.20625 9.25842 4.41639 9.64093C4.00391 9.90644 4.55223 10.0943 5.06653 10.2705C5.14823 10.2984 5.22908 10.3261 5.30507 10.3538C5.36835 10.3709 5.43271 10.3889 5.49792 10.4072C6.06988 10.5674 6.70765 10.7461 7.26292 10.4773C8.17508 10.0166 9.03589 9.48402 9.89605 8.95181C10.1779 8.77744 10.4596 8.60312 10.7431 8.43139C10.7563 8.42392 10.7713 8.41538 10.7877 8.40604C11.0292 8.26842 11.5722 7.95893 11.3714 8.38539C10.8963 8.84212 10.3875 9.24642 9.87597 9.65293C9.53121 9.92689 9.18519 10.2018 8.84739 10.4945C8.55318 10.7047 8.2477 11.1273 8.57713 11.4216C9.33589 11.8887 10.1065 12.3443 10.8767 12.7998C11.1273 12.948 11.3779 13.0961 11.628 13.2447C12.0519 13.5422 12.7143 13.3015 12.8075 12.8366C12.849 12.6227 12.8906 12.4089 12.9322 12.195C13.1621 11.013 13.3922 9.83055 13.5954 8.64469C13.623 8.45868 13.6543 8.27267 13.6856 8.08657C13.7615 7.63552 13.8375 7.18393 13.8613 6.73046C13.8001 6.27793 13.176 6.37743 12.8287 6.47919C11.0435 7.07641 9.27614 7.71791 7.51579 8.37072C7.31638 8.4484 7.11423 8.526 6.91074 8.60411Z" fill="white"/>
<path fill-rule="evenodd" clip-rule="evenodd" d="M9.29842 0.248047C7.59295 0.248037 6.24842 0.248029 5.18002 0.363784C4.08694 0.482211 3.18943 0.729367 2.4202 1.28825C1.95781 1.62419 1.55119 2.03081 1.21525 2.4932C0.656369 3.26243 0.409213 4.15994 0.290786 5.25301C0.175032 6.32142 0.175039 7.66595 0.175049 9.37142V10.0247C0.175039 11.7301 0.175032 13.0747 0.290786 14.1431C0.409213 15.2362 0.656369 16.1337 1.21525 16.9029C1.55119 17.3653 1.95781 17.7719 2.4202 18.1078C3.18943 18.6667 4.08694 18.9139 5.18002 19.0323C6.24841 19.1481 7.59293 19.1481 9.29837 19.148H9.9517C11.6571 19.1481 13.0017 19.1481 14.0701 19.0323C15.1632 18.9139 16.0607 18.6667 16.8299 18.1078C17.2923 17.7719 17.6989 17.3653 18.0348 16.9029C18.5937 16.1337 18.8409 15.2362 18.9593 14.1431C19.0751 13.0747 19.0751 11.7302 19.075 10.0247V9.37139C19.0751 7.66596 19.0751 6.32141 18.9593 5.25301C18.8409 4.15994 18.5937 3.26243 18.0348 2.4932C17.6989 2.03081 17.2923 1.62419 16.8299 1.28825C16.0607 0.729367 15.1632 0.482211 14.0701 0.363784C13.0017 0.248029 11.6571 0.248037 9.95168 0.248047H9.29842ZM3.35052 2.56872C3.80497 2.23855 4.39209 2.04117 5.3505 1.93733C6.32372 1.83189 7.58254 1.83081 9.34574 1.83081H9.90436C11.6676 1.83081 12.9264 1.83189 13.8996 1.93733C14.858 2.04117 15.4451 2.23855 15.8996 2.56872C16.2276 2.80704 16.5161 3.0955 16.7544 3.42352C17.0846 3.87797 17.2819 4.46509 17.3858 5.4235C17.4912 6.39672 17.4923 7.65554 17.4923 9.41874V9.97736C17.4923 11.7406 17.4912 12.9994 17.3858 13.9726C17.2819 14.931 17.0846 15.5181 16.7544 15.9726C16.5161 16.3006 16.2276 16.5891 15.8996 16.8274C15.4451 17.1575 14.858 17.3549 13.8996 17.4588C12.9264 17.5642 11.6676 17.5653 9.90436 17.5653H9.34574C7.58255 17.5653 6.32372 17.5642 5.3505 17.4588C4.39209 17.3549 3.80497 17.1575 3.35052 16.8274C3.02251 16.5891 2.73404 16.3006 2.49573 15.9726C2.16555 15.5181 1.96817 14.931 1.86434 13.9726C1.75889 12.9994 1.75781 11.7406 1.75781 9.97736V9.41874C1.75781 7.65554 1.75889 6.39672 1.86434 5.4235C1.96817 4.46509 2.16555 3.87797 2.49573 3.42352C2.73404 3.0955 3.02251 2.80704 3.35052 2.56872Z" fill="white"/>
</svg>
