<svg width="19" height="20" viewBox="0 0 19 20" fill="none" xmlns="http://www.w3.org/2000/svg">
<path d="M7.47342 13.0163L13.0596 9.79115L7.47342 6.56595V13.0163Z" fill="white"/>
<path fill-rule="evenodd" clip-rule="evenodd" d="M9.14852 0.248047C7.44305 0.248037 6.09852 0.248029 5.03011 0.363784C3.93704 0.482211 3.03953 0.729367 2.2703 1.28825C1.80791 1.62419 1.40129 2.03081 1.06535 2.4932C0.506466 3.26243 0.259311 4.15994 0.140883 5.25301C0.0251291 6.32142 0.0251368 7.66595 0.0251467 9.37142V10.0247C0.0251368 11.7301 0.0251291 13.0747 0.140883 14.1431C0.259311 15.2362 0.506466 16.1337 1.06535 16.9029C1.40129 17.3653 1.80791 17.7719 2.2703 18.1078C3.03953 18.6667 3.93704 18.9139 5.03011 19.0323C6.09851 19.1481 7.44303 19.1481 9.14846 19.148H9.8018C11.5072 19.1481 12.8518 19.1481 13.9202 19.0323C15.0133 18.9139 15.9108 18.6667 16.68 18.1078C17.1424 17.7719 17.549 17.3653 17.8849 16.9029C18.4438 16.1337 18.691 15.2362 18.8094 14.1431C18.9252 13.0747 18.9252 11.7302 18.9251 10.0247V9.37139C18.9252 7.66596 18.9252 6.32141 18.8094 5.25301C18.691 4.15994 18.4438 3.26243 17.8849 2.4932C17.549 2.03081 17.1424 1.62419 16.68 1.28825C15.9108 0.729367 15.0133 0.482211 13.9202 0.363784C12.8518 0.248029 11.5072 0.248037 9.80178 0.248047H9.14852ZM3.20062 2.56872C3.65507 2.23855 4.24219 2.04117 5.2006 1.93733C6.17382 1.83189 7.43264 1.83081 9.19584 1.83081H9.75446C11.5176 1.83081 12.7765 1.83189 13.7497 1.93733C14.7081 2.04117 15.2952 2.23855 15.7497 2.56872C16.0777 2.80704 16.3662 3.0955 16.6045 3.42352C16.9346 3.87797 17.132 4.46509 17.2359 5.4235C17.3413 6.39672 17.3424 7.65554 17.3424 9.41874V9.97736C17.3424 11.7406 17.3413 12.9994 17.2359 13.9726C17.132 14.931 16.9346 15.5181 16.6045 15.9726C16.3662 16.3006 16.0777 16.5891 15.7497 16.8274C15.2952 17.1575 14.7081 17.3549 13.7497 17.4588C12.7765 17.5642 11.5177 17.5653 9.75446 17.5653H9.19584C7.43264 17.5653 6.17382 17.5642 5.2006 17.4588C4.24219 17.3549 3.65507 17.1575 3.20062 16.8274C2.8726 16.5891 2.58414 16.3006 2.34582 15.9726C2.01564 15.5181 1.81827 14.931 1.71443 13.9726C1.60899 12.9994 1.60791 11.7406 1.60791 9.97736V9.41874C1.60791 7.65554 1.60899 6.39672 1.71443 5.4235C1.81827 4.46509 2.01564 3.87797 2.34582 3.42352C2.58414 3.0955 2.8726 2.80704 3.20062 2.56872Z" fill="white"/>
</svg>
